<mxfile host="app.diagrams.net" agent="Mozilla/5.0 (Windows NT 10.0; Win64; x64) AppleWebKit/537.36 (KHTML, like Gecko) Chrome/133.0.0.0 Safari/537.36" version="26.1.0">
  <diagram id="C5RBs43oDa-KdzZeNtuy" name="Page-1">
    <mxGraphModel grid="1" page="1" gridSize="10" guides="1" tooltips="1" connect="1" arrows="1" fold="1" pageScale="1" pageWidth="827" pageHeight="1169" math="0" shadow="0">
      <root>
        <mxCell id="WIyWlLk6GJQsqaUBKTNV-0" />
        <mxCell id="WIyWlLk6GJQsqaUBKTNV-1" parent="WIyWlLk6GJQsqaUBKTNV-0" />
        <mxCell id="iXmqzpFQKqinNQqxrl1--34" style="edgeStyle=orthogonalEdgeStyle;rounded=0;orthogonalLoop=1;jettySize=auto;html=1;" edge="1" parent="WIyWlLk6GJQsqaUBKTNV-1" source="iXmqzpFQKqinNQqxrl1--1" target="iXmqzpFQKqinNQqxrl1--32">
          <mxGeometry relative="1" as="geometry" />
        </mxCell>
        <mxCell id="iXmqzpFQKqinNQqxrl1--1" value="&lt;p&gt;histograms.py&lt;/p&gt;" style="ellipse;whiteSpace=wrap;html=1;" vertex="1" parent="WIyWlLk6GJQsqaUBKTNV-1">
          <mxGeometry x="39.96" y="10" width="120" height="70" as="geometry" />
        </mxCell>
        <mxCell id="iXmqzpFQKqinNQqxrl1--26" style="edgeStyle=orthogonalEdgeStyle;rounded=0;orthogonalLoop=1;jettySize=auto;html=1;entryX=0.5;entryY=0;entryDx=0;entryDy=0;" edge="1" parent="WIyWlLk6GJQsqaUBKTNV-1" source="iXmqzpFQKqinNQqxrl1--2" target="iXmqzpFQKqinNQqxrl1--25">
          <mxGeometry relative="1" as="geometry" />
        </mxCell>
        <mxCell id="iXmqzpFQKqinNQqxrl1--2" value="import pygal" style="shape=parallelogram;perimeter=parallelogramPerimeter;whiteSpace=wrap;html=1;fixedSize=1;" vertex="1" parent="WIyWlLk6GJQsqaUBKTNV-1">
          <mxGeometry x="39.96" y="220" width="120" height="60" as="geometry" />
        </mxCell>
        <mxCell id="wzVWu2LCXRriYMG0dlIS-0" value="2015-2019" style="edgeStyle=orthogonalEdgeStyle;rounded=0;orthogonalLoop=1;jettySize=auto;html=1;entryX=0.5;entryY=0;entryDx=0;entryDy=0;" edge="1" parent="WIyWlLk6GJQsqaUBKTNV-1" source="iXmqzpFQKqinNQqxrl1--10" target="OkaOdNe7BuRAB1NfmZoN-0">
          <mxGeometry relative="1" as="geometry">
            <mxPoint x="99.96000000000004" y="540" as="targetPoint" />
          </mxGeometry>
        </mxCell>
        <mxCell id="wzVWu2LCXRriYMG0dlIS-17" value="finished" style="edgeStyle=orthogonalEdgeStyle;rounded=0;orthogonalLoop=1;jettySize=auto;html=1;entryX=0;entryY=0.5;entryDx=0;entryDy=0;" edge="1" parent="WIyWlLk6GJQsqaUBKTNV-1" source="iXmqzpFQKqinNQqxrl1--10" target="wzVWu2LCXRriYMG0dlIS-16">
          <mxGeometry relative="1" as="geometry" />
        </mxCell>
        <mxCell id="iXmqzpFQKqinNQqxrl1--10" value="Loop&lt;div&gt;Through&lt;br&gt;Years&lt;/div&gt;" style="rhombus;whiteSpace=wrap;html=1;" vertex="1" parent="WIyWlLk6GJQsqaUBKTNV-1">
          <mxGeometry x="59.96" y="420" width="80" height="80" as="geometry" />
        </mxCell>
        <mxCell id="iXmqzpFQKqinNQqxrl1--30" style="edgeStyle=orthogonalEdgeStyle;rounded=0;orthogonalLoop=1;jettySize=auto;html=1;entryX=0.5;entryY=0;entryDx=0;entryDy=0;" edge="1" parent="WIyWlLk6GJQsqaUBKTNV-1" source="iXmqzpFQKqinNQqxrl1--25" target="iXmqzpFQKqinNQqxrl1--10">
          <mxGeometry relative="1" as="geometry" />
        </mxCell>
        <mxCell id="iXmqzpFQKqinNQqxrl1--25" value="Define CSVs" style="shape=parallelogram;perimeter=parallelogramPerimeter;whiteSpace=wrap;html=1;fixedSize=1;" vertex="1" parent="WIyWlLk6GJQsqaUBKTNV-1">
          <mxGeometry x="39.96" y="320" width="120" height="60" as="geometry" />
        </mxCell>
        <mxCell id="iXmqzpFQKqinNQqxrl1--33" style="edgeStyle=orthogonalEdgeStyle;rounded=0;orthogonalLoop=1;jettySize=auto;html=1;entryX=0.5;entryY=0;entryDx=0;entryDy=0;" edge="1" parent="WIyWlLk6GJQsqaUBKTNV-1" source="iXmqzpFQKqinNQqxrl1--32" target="iXmqzpFQKqinNQqxrl1--2">
          <mxGeometry relative="1" as="geometry" />
        </mxCell>
        <mxCell id="iXmqzpFQKqinNQqxrl1--32" value="&lt;font face=&quot;Helvetica&quot;&gt;import pandas&lt;/font&gt;" style="shape=parallelogram;perimeter=parallelogramPerimeter;whiteSpace=wrap;html=1;fixedSize=1;" vertex="1" parent="WIyWlLk6GJQsqaUBKTNV-1">
          <mxGeometry x="39.96" y="120" width="120" height="60" as="geometry" />
        </mxCell>
        <mxCell id="wzVWu2LCXRriYMG0dlIS-4" style="edgeStyle=orthogonalEdgeStyle;rounded=0;orthogonalLoop=1;jettySize=auto;html=1;" edge="1" parent="WIyWlLk6GJQsqaUBKTNV-1" source="iXmqzpFQKqinNQqxrl1--83" target="wzVWu2LCXRriYMG0dlIS-3">
          <mxGeometry relative="1" as="geometry" />
        </mxCell>
        <mxCell id="iXmqzpFQKqinNQqxrl1--83" value="Sort Data by&lt;div&gt;&quot;Happiness Rank&quot;&lt;/div&gt;" style="rounded=0;whiteSpace=wrap;html=1;" vertex="1" parent="WIyWlLk6GJQsqaUBKTNV-1">
          <mxGeometry x="180" y="550" width="120" height="60" as="geometry" />
        </mxCell>
        <mxCell id="wzVWu2LCXRriYMG0dlIS-6" style="edgeStyle=orthogonalEdgeStyle;rounded=0;orthogonalLoop=1;jettySize=auto;html=1;" edge="1" parent="WIyWlLk6GJQsqaUBKTNV-1" source="wzVWu2LCXRriYMG0dlIS-3" target="wzVWu2LCXRriYMG0dlIS-5">
          <mxGeometry relative="1" as="geometry" />
        </mxCell>
        <mxCell id="wzVWu2LCXRriYMG0dlIS-3" value="Select Top&lt;div&gt;10 Countries&lt;/div&gt;" style="rounded=0;whiteSpace=wrap;html=1;" vertex="1" parent="WIyWlLk6GJQsqaUBKTNV-1">
          <mxGeometry x="340" y="550" width="120" height="60" as="geometry" />
        </mxCell>
        <mxCell id="wzVWu2LCXRriYMG0dlIS-18" style="edgeStyle=orthogonalEdgeStyle;rounded=0;orthogonalLoop=1;jettySize=auto;html=1;entryX=0;entryY=0.5;entryDx=0;entryDy=0;" edge="1" parent="WIyWlLk6GJQsqaUBKTNV-1" source="wzVWu2LCXRriYMG0dlIS-5">
          <mxGeometry relative="1" as="geometry">
            <mxPoint x="660" y="580.0000000000001" as="targetPoint" />
          </mxGeometry>
        </mxCell>
        <mxCell id="wzVWu2LCXRriYMG0dlIS-5" value="Add a Title&lt;br&gt;to Bar Chart" style="rounded=0;whiteSpace=wrap;html=1;" vertex="1" parent="WIyWlLk6GJQsqaUBKTNV-1">
          <mxGeometry x="500" y="550" width="120" height="60" as="geometry" />
        </mxCell>
        <mxCell id="OkaOdNe7BuRAB1NfmZoN-4" style="edgeStyle=orthogonalEdgeStyle;rounded=0;orthogonalLoop=1;jettySize=auto;html=1;entryX=1;entryY=0.5;entryDx=0;entryDy=0;" edge="1" parent="WIyWlLk6GJQsqaUBKTNV-1" source="wzVWu2LCXRriYMG0dlIS-9" target="OkaOdNe7BuRAB1NfmZoN-2">
          <mxGeometry relative="1" as="geometry">
            <Array as="points">
              <mxPoint x="780" y="470" />
              <mxPoint x="780" y="580" />
            </Array>
          </mxGeometry>
        </mxCell>
        <mxCell id="wzVWu2LCXRriYMG0dlIS-9" value="Add Each Country&lt;div&gt;and its Ranking&lt;/div&gt;&lt;div&gt;to The Bar Chart&lt;/div&gt;" style="rounded=0;whiteSpace=wrap;html=1;" vertex="1" parent="WIyWlLk6GJQsqaUBKTNV-1">
          <mxGeometry x="640" y="440" width="120" height="60" as="geometry" />
        </mxCell>
        <mxCell id="9IA9nYe-WVBV5ovW9xwN-0" style="edgeStyle=orthogonalEdgeStyle;rounded=0;orthogonalLoop=1;jettySize=auto;html=1;entryX=0;entryY=0.5;entryDx=0;entryDy=0;" edge="1" parent="WIyWlLk6GJQsqaUBKTNV-1" source="wzVWu2LCXRriYMG0dlIS-13" target="iXmqzpFQKqinNQqxrl1--10">
          <mxGeometry relative="1" as="geometry">
            <Array as="points">
              <mxPoint x="20" y="700" />
              <mxPoint x="20" y="460" />
            </Array>
          </mxGeometry>
        </mxCell>
        <mxCell id="wzVWu2LCXRriYMG0dlIS-13" value="save to&lt;div&gt;happiness_leaderboard_{year}.svg&lt;/div&gt;" style="rhombus;whiteSpace=wrap;html=1;" vertex="1" parent="WIyWlLk6GJQsqaUBKTNV-1">
          <mxGeometry x="660" y="660" width="80" height="80" as="geometry" />
        </mxCell>
        <mxCell id="wzVWu2LCXRriYMG0dlIS-16" value="&lt;p&gt;End&lt;/p&gt;" style="ellipse;whiteSpace=wrap;html=1;" vertex="1" parent="WIyWlLk6GJQsqaUBKTNV-1">
          <mxGeometry x="200" y="425" width="120" height="70" as="geometry" />
        </mxCell>
        <mxCell id="OkaOdNe7BuRAB1NfmZoN-1" style="edgeStyle=orthogonalEdgeStyle;rounded=0;orthogonalLoop=1;jettySize=auto;html=1;" edge="1" parent="WIyWlLk6GJQsqaUBKTNV-1" source="OkaOdNe7BuRAB1NfmZoN-0" target="iXmqzpFQKqinNQqxrl1--83">
          <mxGeometry relative="1" as="geometry" />
        </mxCell>
        <mxCell id="OkaOdNe7BuRAB1NfmZoN-0" value="Read CSV" style="shape=parallelogram;perimeter=parallelogramPerimeter;whiteSpace=wrap;html=1;fixedSize=1;" vertex="1" parent="WIyWlLk6GJQsqaUBKTNV-1">
          <mxGeometry x="39.96" y="550" width="120" height="60" as="geometry" />
        </mxCell>
        <mxCell id="OkaOdNe7BuRAB1NfmZoN-3" style="edgeStyle=orthogonalEdgeStyle;rounded=0;orthogonalLoop=1;jettySize=auto;html=1;" edge="1" parent="WIyWlLk6GJQsqaUBKTNV-1" source="OkaOdNe7BuRAB1NfmZoN-2" target="wzVWu2LCXRriYMG0dlIS-9">
          <mxGeometry relative="1" as="geometry" />
        </mxCell>
        <mxCell id="OkaOdNe7BuRAB1NfmZoN-6" value="top 10 countries" style="edgeLabel;html=1;align=center;verticalAlign=middle;resizable=0;points=[];" vertex="1" connectable="0" parent="OkaOdNe7BuRAB1NfmZoN-3">
          <mxGeometry x="-0.2083" y="3" relative="1" as="geometry">
            <mxPoint as="offset" />
          </mxGeometry>
        </mxCell>
        <mxCell id="OkaOdNe7BuRAB1NfmZoN-5" value="finished" style="edgeStyle=orthogonalEdgeStyle;rounded=0;orthogonalLoop=1;jettySize=auto;html=1;" edge="1" parent="WIyWlLk6GJQsqaUBKTNV-1" source="OkaOdNe7BuRAB1NfmZoN-2" target="wzVWu2LCXRriYMG0dlIS-13">
          <mxGeometry relative="1" as="geometry" />
        </mxCell>
        <mxCell id="OkaOdNe7BuRAB1NfmZoN-2" value="Loop&lt;div&gt;Until Top 10&lt;/div&gt;&lt;div&gt;Countries&lt;/div&gt;" style="rhombus;whiteSpace=wrap;html=1;" vertex="1" parent="WIyWlLk6GJQsqaUBKTNV-1">
          <mxGeometry x="660" y="540" width="80" height="80" as="geometry" />
        </mxCell>
      </root>
    </mxGraphModel>
  </diagram>
</mxfile>
